<?xml version="1.0" encoding="UTF-8" standalone="no"?>
<svg
   xmlns:dc="http://purl.org/dc/elements/1.1/"
   xmlns:cc="http://creativecommons.org/ns#"
   xmlns:rdf="http://www.w3.org/1999/02/22-rdf-syntax-ns#"
   xmlns:svg="http://www.w3.org/2000/svg"
   xmlns="http://www.w3.org/2000/svg"
   xmlns:sodipodi="http://sodipodi.sourceforge.net/DTD/sodipodi-0.dtd"
   xmlns:inkscape="http://www.inkscape.org/namespaces/inkscape"
   version="1.1"
   id="svg2"
   xml:space="preserve"
   width="793.70135"
   height="793.70801"
   viewBox="0 0 793.70135 793.70801"
   sodipodi:docname="Ayo-Memilih.ai"><metadata
     id="metadata8"><rdf:RDF><cc:Work
         rdf:about=""><dc:format>image/svg+xml</dc:format><dc:type
           rdf:resource="http://purl.org/dc/dcmitype/StillImage" /></cc:Work></rdf:RDF></metadata><defs
     id="defs6"><clipPath
       clipPathUnits="userSpaceOnUse"
       id="clipPath18"><path
         d="M 0,595.281 H 595.276 V 0 H 0 Z"
         id="path16" /></clipPath><clipPath
       clipPathUnits="userSpaceOnUse"
       id="clipPath122"><path
         d="m 166.869,261.438 c 3.138,-3.663 6.7,-6.614 8.416,-3.805 v 0 c 3.441,5.63 2.189,12.647 10.322,5.386 v 0 c 3.769,-3.365 7.672,-3.626 10.962,-2.658 v 0 c 3.128,15.646 6.552,43.181 -6.583,43.606 v 0 c -0.168,0.005 -0.337,0.008 -0.504,0.008 v 0 c -12.876,0 -20.912,-16.133 -22.613,-42.537"
         id="path120" /></clipPath><radialGradient
       fx="0"
       fy="0"
       cx="0"
       cy="0"
       r="1"
       gradientUnits="userSpaceOnUse"
       gradientTransform="matrix(29.562754,-3.8584368,-8.6607628,-66.357445,196.2899,269.29822)"
       spreadMethod="pad"
       id="radialGradient138"><stop
         style="stop-opacity:0;stop-color:#ffffff"
         offset="0"
         id="stop132" /><stop
         style="stop-opacity:0;stop-color:#ffffff"
         offset="0.576022"
         id="stop134" /><stop
         style="stop-opacity:1;stop-color:#ffffff"
         offset="1"
         id="stop136" /></radialGradient><mask
       maskUnits="userSpaceOnUse"
       x="0"
       y="0"
       width="1"
       height="1"
       id="mask140"><g
         id="g150"><g
           id="g148"><g
             id="g146"><g
               id="g144"><path
                 d="M -32768,32767 H 32767 V -32768 H -32768 Z"
                 style="fill:url(#radialGradient138);stroke:none"
                 id="path142" /></g></g></g></g></mask><radialGradient
       fx="0"
       fy="0"
       cx="0"
       cy="0"
       r="1"
       gradientUnits="userSpaceOnUse"
       gradientTransform="matrix(29.562754,-3.8584368,-8.6607628,-66.357445,196.2899,269.29822)"
       spreadMethod="pad"
       id="radialGradient162"><stop
         style="stop-opacity:1;stop-color:#ffffff"
         offset="0"
         id="stop156" /><stop
         style="stop-opacity:1;stop-color:#ffffff"
         offset="0.576022"
         id="stop158" /><stop
         style="stop-opacity:1;stop-color:#ffffff"
         offset="1"
         id="stop160" /></radialGradient><clipPath
       clipPathUnits="userSpaceOnUse"
       id="clipPath172"><path
         d="M 0,595.281 H 595.276 V 0 H 0 Z"
         id="path170" /></clipPath><clipPath
       clipPathUnits="userSpaceOnUse"
       id="clipPath200"><path
         d="m 388.828,86.53 c 0,-5.909 37.377,-10.698 83.484,-10.698 v 0 c 46.107,0 83.484,4.789 83.484,10.698 v 0 c 0,5.907 -37.377,10.698 -83.484,10.698 v 0 c -46.107,0 -83.484,-4.791 -83.484,-10.698"
         id="path198" /></clipPath><radialGradient
       fx="0"
       fy="0"
       cx="0"
       cy="0"
       r="1"
       gradientUnits="userSpaceOnUse"
       gradientTransform="matrix(83.48407,0,0,-10.697644,472.31186,86.529663)"
       spreadMethod="pad"
       id="radialGradient216"><stop
         style="stop-opacity:1;stop-color:#ffffff"
         offset="0"
         id="stop210" /><stop
         style="stop-opacity:0;stop-color:#ffffff"
         offset="0.829268"
         id="stop212" /><stop
         style="stop-opacity:0;stop-color:#ffffff"
         offset="1"
         id="stop214" /></radialGradient><mask
       maskUnits="userSpaceOnUse"
       x="0"
       y="0"
       width="1"
       height="1"
       id="mask218"><g
         id="g228"><g
           id="g226"><g
             id="g224"><g
               id="g222"><path
                 d="M -32768,32767 H 32767 V -32768 H -32768 Z"
                 style="fill:url(#radialGradient216);stroke:none"
                 id="path220" /></g></g></g></g></mask><radialGradient
       fx="0"
       fy="0"
       cx="0"
       cy="0"
       r="1"
       gradientUnits="userSpaceOnUse"
       gradientTransform="matrix(83.48407,0,0,-10.697644,472.31186,86.529663)"
       spreadMethod="pad"
       id="radialGradient240"><stop
         style="stop-opacity:1;stop-color:#231f20"
         offset="0"
         id="stop234" /><stop
         style="stop-opacity:1;stop-color:#231f20"
         offset="0.829268"
         id="stop236" /><stop
         style="stop-opacity:1;stop-color:#231f20"
         offset="1"
         id="stop238" /></radialGradient><clipPath
       clipPathUnits="userSpaceOnUse"
       id="clipPath250"><path
         d="m 150.575,103.859 c 0,-9.571 87.936,-17.329 196.409,-17.329 v 0 c 108.474,0 196.409,7.758 196.409,17.329 v 0 c 0,9.571 -87.935,17.33 -196.409,17.33 v 0 c -108.473,0 -196.409,-7.759 -196.409,-17.33"
         id="path248" /></clipPath><radialGradient
       fx="0"
       fy="0"
       cx="0"
       cy="0"
       r="1"
       gradientUnits="userSpaceOnUse"
       gradientTransform="matrix(196.40851,0,0,-17.329451,346.9841,103.85911)"
       spreadMethod="pad"
       id="radialGradient266"><stop
         style="stop-opacity:1;stop-color:#ffffff"
         offset="0"
         id="stop260" /><stop
         style="stop-opacity:0;stop-color:#ffffff"
         offset="0.829268"
         id="stop262" /><stop
         style="stop-opacity:0;stop-color:#ffffff"
         offset="1"
         id="stop264" /></radialGradient><mask
       maskUnits="userSpaceOnUse"
       x="0"
       y="0"
       width="1"
       height="1"
       id="mask268"><g
         id="g278"><g
           id="g276"><g
             id="g274"><g
               id="g272"><path
                 d="M -32768,32767 H 32767 V -32768 H -32768 Z"
                 style="fill:url(#radialGradient266);stroke:none"
                 id="path270" /></g></g></g></g></mask><radialGradient
       fx="0"
       fy="0"
       cx="0"
       cy="0"
       r="1"
       gradientUnits="userSpaceOnUse"
       gradientTransform="matrix(196.40851,0,0,-17.329451,346.9841,103.85911)"
       spreadMethod="pad"
       id="radialGradient290"><stop
         style="stop-opacity:1;stop-color:#231f20"
         offset="0"
         id="stop284" /><stop
         style="stop-opacity:1;stop-color:#231f20"
         offset="0.829268"
         id="stop286" /><stop
         style="stop-opacity:1;stop-color:#231f20"
         offset="1"
         id="stop288" /></radialGradient></defs><sodipodi:namedview
     pagecolor="#ffffff"
     bordercolor="#666666"
     borderopacity="1"
     objecttolerance="10"
     gridtolerance="10"
     guidetolerance="10"
     inkscape:pageopacity="0"
     inkscape:pageshadow="2"
     inkscape:window-width="640"
     inkscape:window-height="480"
     id="namedview4" /><g
     id="g10"
     inkscape:groupmode="layer"
     inkscape:label="Ayo-Memilih"
     transform="matrix(1.3333333,0,0,-1.3333333,0,793.708)"><g
       id="g12"><g
         id="g14"
         clip-path="url(#clipPath18)"><g
           id="g20"
           transform="translate(280.252,427.9888)"><path
             d="m 0,0 c -7.443,42.229 -66.606,67.097 -132.144,55.545 -65.537,-11.551 -112.632,-55.149 -105.189,-97.378 7.442,-42.228 66.605,-67.098 132.144,-55.545 C -39.652,-85.827 7.443,-42.229 0,0 m 9.387,-141.309 c -5.428,0 -9.828,-4.4 -9.828,-9.828 0,-5.429 4.4,-9.829 9.828,-9.829 5.428,0 9.829,4.4 9.829,9.829 0,5.428 -4.401,9.828 -9.829,9.828 m -23.181,-62.445 c -18.301,25.18 -61.679,-5.966 -59.693,-18.527 2.075,-13.138 31.393,-14.076 44.531,-0.939 -5.63,-18.143 -45.669,-27.527 -55.992,-3.441 -10.322,24.086 15.953,41.29 35.972,46.921 11.58,3.256 21.589,0.235 27.971,-2.892 -1.892,2.605 -4.127,4.766 -6.7,6.333 -21.584,13.137 -58.494,-1.877 -58.494,-1.877 0.625,1.252 14.076,53.568 -4.067,54.154 -18.142,0.586 -26.901,-30.381 -22.209,-76.989 4.693,-46.608 37.537,-67.566 71.007,-55.365 21.07,7.678 29.615,32.216 27.674,52.622 m 278.373,38.867 c -10.559,2.93 -22.522,-6.952 -26.72,-22.073 -4.196,-15.123 0.962,-29.757 11.522,-32.688 10.559,-2.931 22.523,6.951 26.72,22.072 4.197,15.122 -0.962,29.759 -11.522,32.689 m -42.041,-0.152 c -7.774,0 -14.076,-9.943 -14.076,-22.209 0,-12.265 6.302,-22.209 14.076,-22.209 7.774,0 14.076,9.944 14.076,22.209 0,12.266 -6.302,22.209 -14.076,22.209 m -22.373,-34.096 c -12.451,-0.666 -32.719,-1.399 -45.747,-0.06 -1.125,-21.218 -1.68,-40.986 -1.943,-56.847 12.984,-0.053 35.823,1.696 54.996,11.468 l 4.504,30.437 c -5.264,2.366 -9.558,7.878 -11.81,15.002 m -69.779,68.192 c -9.384,33.157 -35.034,10.948 -36.91,-3.44 24.711,23.46 36.91,3.44 36.91,3.44 m -9.51,-26.12 c 0,10.626 -7.001,19.239 -15.64,19.239 -8.637,0 -15.639,-8.613 -15.639,-19.239 0,-10.623 7.002,-19.236 15.639,-19.236 8.639,0 15.64,8.613 15.64,19.236 m -18.768,-35.204 H 14.21 c 0,-23.142 19.678,-41.901 43.949,-41.901 24.273,0 43.949,18.759 43.949,41.901 m -92.902,15.968 c 8.638,0 15.64,8.613 15.64,19.236 0,10.626 -7.002,19.239 -15.64,19.239 -8.638,0 -15.64,-8.613 -15.64,-19.239 0,-10.623 7.002,-19.236 15.64,-19.236 m 11.886,41.916 c -1.876,14.388 -27.526,36.597 -36.91,3.44 0,0 12.199,20.02 36.91,-3.44 m 130.69,47.208 c -16.421,-80.229 -14.544,-205.97 -14.544,-205.97 0,0 -74.131,31.436 -165.621,-5.631 1.086,6.043 1.971,12.068 2.674,18.059 0.649,5.536 1.144,11.043 1.499,16.507 5.902,4.159 11.013,9.577 15.092,16.067 5.606,8.918 9.164,19.646 10.29,31.026 1.033,10.432 -0.033,20.72 -3.082,29.749 -3.619,10.716 -9.829,18.996 -17.957,23.945 -3.848,2.341 -8.119,4.139 -12.775,5.4 -6.585,31.173 -14.916,54.325 -18.513,63.591 4.934,2.578 9.67,5.363 14.185,8.337 31.451,6.718 105.612,18.026 188.752,-1.08 m -47.37,43.383 c -37.792,4.986 -85.936,2.805 -119.842,-5.015 -1.26,-2.226 -6.19,-6.962 -7.666,-9.136 29.156,10.157 83.69,16.503 127.508,14.151 m 10.834,-107.345 c 0,-5.429 -4.4,-9.829 -9.828,-9.829 -5.428,0 -9.829,4.4 -9.829,9.829 0,5.428 4.401,9.828 9.829,9.828 5.428,0 9.828,-4.4 9.828,-9.828"
             style="fill:#ffffff;fill-opacity:1;fill-rule:nonzero;stroke:none"
             id="path22" /></g><g
           id="g24"
           transform="translate(167.8413,405.5142)"><path
             d="m 0,0 c -0.001,0.259 -0.086,0.369 -0.255,0.332 -0.371,-0.084 -0.921,-0.23 -1.649,-0.441 -0.729,-0.212 -1.279,-0.357 -1.65,-0.44 -0.326,-0.073 -0.824,-0.165 -1.495,-0.273 -0.671,-0.11 -1.175,-0.202 -1.512,-0.277 -0.338,-0.075 -0.499,-0.261 -0.485,-0.557 0.075,-1.562 0.227,-3.89 0.456,-6.988 0.228,-3.097 0.38,-5.427 0.455,-6.988 0.071,-1.466 0.156,-3.667 0.259,-6.603 0.101,-2.936 0.188,-5.138 0.258,-6.604 0.016,-0.35 0.19,-0.522 0.519,-0.517 0.948,0.145 1.674,0.281 2.18,0.406 l 5.046,1.046 c 0.496,0.098 1.756,0.345 3.783,0.744 1.553,0.294 2.814,0.547 3.781,0.764 0.405,0.091 0.634,0.155 0.689,0.196 0.177,0.106 0.285,0.342 0.325,0.704 0.2,1.731 0.246,3.747 0.135,6.049 -0.015,0.309 -0.174,0.43 -0.478,0.362 -1.012,-0.226 -2.524,-0.629 -4.536,-1.207 -2.013,-0.58 -3.524,-0.982 -4.535,-1.208 -0.282,-0.063 -0.428,-0.096 -0.439,-0.099 -0.16,0.005 -0.249,0.088 -0.268,0.246 -0.019,0.159 -0.038,0.318 -0.057,0.478 -0.049,0.791 -0.115,2.048 -0.198,3.771 l -0.24,5.332 c -0.075,5.112 -0.107,8.947 -0.094,11.506 z"
             style="fill:#000000;fill-opacity:1;fill-rule:nonzero;stroke:none"
             id="path26" /></g><g
           id="g28"
           transform="translate(142.4258,444.063)"><path
             d="m 0,0 -0.433,-0.126 c -0.102,-0.082 -0.148,-0.304 -0.138,-0.665 0.024,-0.859 0.104,-2.149 0.24,-3.87 0.135,-1.719 0.214,-3.009 0.238,-3.869 0.013,-0.43 -0.448,-1.821 -1.382,-4.174 -0.739,-1.879 -1.333,-3.3 -1.783,-4.263 -0.544,0.726 -1.242,1.778 -2.095,3.159 -1.073,1.768 -1.617,2.91 -1.631,3.425 -0.024,0.877 -0.036,2.204 -0.033,3.982 0.002,1.776 -0.008,3.105 -0.033,3.982 -0.007,0.257 -0.144,0.348 -0.409,0.27 -0.715,-0.208 -1.79,-0.478 -3.222,-0.81 -1.433,-0.331 -2.502,-0.599 -3.205,-0.804 -0.231,-0.066 -0.338,-0.384 -0.322,-0.952 0.029,-1.031 0.106,-2.569 0.233,-4.612 0.127,-2.043 0.205,-3.581 0.234,-4.612 0.012,-0.431 0.16,-0.942 0.445,-1.535 2.765,-5.312 4.887,-9.236 6.366,-11.769 0.295,-0.556 0.45,-1.109 0.465,-1.659 0.026,-0.929 0.013,-2.34 -0.038,-4.237 -0.051,-1.895 -0.064,-3.299 -0.039,-4.212 0.012,-0.429 0.181,-0.63 0.505,-0.606 0.465,0.031 1.534,0.293 3.206,0.78 1.662,0.485 2.699,0.839 3.111,1.063 0.286,0.152 0.441,0.24 0.463,0.265 0.091,0.095 0.132,0.299 0.123,0.608 -0.025,0.893 -0.098,2.242 -0.218,4.045 -0.12,1.801 -0.193,3.158 -0.219,4.071 -0.016,0.583 0.15,1.291 0.499,2.121 2.469,5.677 4.397,10.964 5.784,15.858 0.169,0.604 0.243,1.276 0.222,2.015 -0.026,0.929 -0.076,2.305 -0.15,4.13 C 6.709,-1.177 6.659,0.19 6.634,1.103 6.614,1.841 6.487,2.177 6.257,2.11 5.553,1.905 4.507,1.552 3.12,1.053 1.732,0.553 0.692,0.202 0,0"
             style="fill:#000000;fill-opacity:1;fill-rule:nonzero;stroke:none"
             id="path30" /></g><g
           id="g32"
           transform="translate(129.5195,381.8105)"><path
             d="m 0,0 c 0.593,-1.214 1.489,-3.196 2.69,-5.949 1.125,-2.604 2.028,-4.579 2.706,-5.923 0.125,-0.243 0.48,-0.3 1.065,-0.17 0.393,0.089 0.618,0.145 0.673,0.171 0.166,0.092 0.298,0.305 0.395,0.64 0.696,2.562 1.39,5.132 2.084,7.709 1.187,4.386 1.84,6.633 1.96,6.742 0.103,-0.005 0.163,-0.202 0.182,-0.592 0.065,-1.359 0.121,-3.408 0.168,-6.145 0.047,-2.737 0.102,-4.785 0.168,-6.144 0.023,-0.47 0.197,-0.67 0.523,-0.597 l 5.97,1.334 c 0.326,0.073 0.479,0.318 0.459,0.735 -0.07,1.453 -0.226,3.635 -0.469,6.546 -0.242,2.912 -0.398,5.1 -0.469,6.567 -0.077,1.588 -0.143,3.97 -0.199,7.147 -0.056,3.177 -0.123,5.56 -0.2,7.147 -0.015,0.323 -0.191,0.448 -0.529,0.371 -0.281,-0.062 -0.709,-0.193 -1.284,-0.388 -0.577,-0.197 -1.005,-0.328 -1.286,-0.39 -0.337,-0.075 -0.836,-0.167 -1.496,-0.273 -0.659,-0.107 -1.152,-0.195 -1.479,-0.27 -0.224,-0.049 -0.42,-0.357 -0.586,-0.926 C 9.095,11.153 7.619,6.518 6.619,3.438 6.263,2.339 6.023,1.775 5.899,1.747 5.663,1.694 5.35,2.067 4.959,2.863 L -0.588,14.7 c -0.252,0.515 -0.44,0.759 -0.563,0.733 -0.619,-0.14 -1.546,-0.37 -2.78,-0.694 -1.235,-0.324 -2.161,-0.554 -2.779,-0.693 -0.484,-0.108 -0.714,-0.295 -0.689,-0.562 l 0.033,-0.339 c 0.196,-2.187 0.326,-3.837 0.391,-4.951 0.32,-4.269 0.517,-7.182 0.592,-8.742 0.071,-1.468 0.118,-3.685 0.141,-6.651 0.024,-2.967 0.071,-5.184 0.141,-6.651 0.011,-0.215 0.043,-0.36 0.098,-0.437 0.055,-0.076 0.194,-0.088 0.42,-0.038 l 5.632,1.259 c 0.315,0.069 0.461,0.34 0.439,0.812 -0.064,1.318 -0.188,3.29 -0.37,5.914 -0.183,2.625 -0.307,4.598 -0.37,5.917 -0.013,0.268 0.017,0.472 0.09,0.61 C -0.08,0.125 -0.026,0.061 0,0"
             style="fill:#000000;fill-opacity:1;fill-rule:nonzero;stroke:none"
             id="path34" /></g><g
           id="g36"
           transform="translate(151.3657,388.6938)"><path
             d="m 0,0 c 0.083,-1.709 0.153,-5.311 0.213,-10.807 0.02,-2.297 0.028,-3.496 0.022,-3.602 0.021,-0.325 0.192,-0.493 0.517,-0.5 0.455,-0.008 1.503,0.172 3.144,0.539 1.226,0.273 2.202,0.546 2.927,0.817 0.268,0.101 0.413,0.161 0.435,0.178 0.097,0.091 0.14,0.27 0.127,0.54 C 7.309,-11.248 7.16,-8.866 6.939,-5.692 6.718,-2.518 6.569,-0.138 6.493,1.451 6.423,2.89 6.384,5.064 6.375,7.973 6.365,10.882 6.327,13.056 6.257,14.496 6.243,14.791 6.073,14.903 5.747,14.83 5.398,14.753 4.885,14.618 4.207,14.425 3.528,14.233 3.015,14.098 2.667,14.019 2.318,13.942 1.791,13.844 1.086,13.728 0.382,13.611 -0.145,13.513 -0.494,13.436 -0.752,13.377 -0.875,13.202 -0.86,12.905 -0.791,11.464 -0.647,9.314 -0.43,6.453 -0.212,3.59 -0.069,1.439 0,0"
             style="fill:#000000;fill-opacity:1;fill-rule:nonzero;stroke:none"
             id="path38" /></g><g
           id="g40"
           transform="translate(159.1484,437.5234)"><path
             d="m 0,0 c 1.076,2.29 2.426,3.672 4.053,4.146 1.708,0.498 3.136,-0.038 4.285,-1.61 1.1,-1.5 1.687,-3.539 1.759,-6.118 0.069,-2.459 -0.412,-4.775 -1.445,-6.949 -1.088,-2.275 -2.445,-3.65 -4.071,-4.125 -1.743,-0.508 -3.182,0 -4.318,1.524 -1.075,1.454 -1.65,3.497 -1.724,6.128 C -1.53,-4.545 -1.043,-2.211 0,0 m -4.182,-21.346 c 2.457,-3.027 5.469,-4.022 9.034,-2.982 3.588,1.046 6.501,3.749 8.739,8.113 2.194,4.298 3.217,9.128 3.066,14.493 -0.149,5.314 -1.434,9.472 -3.856,12.475 -2.47,3.042 -5.476,4.046 -9.017,3.014 C 0.219,12.728 -2.688,9.998 -4.937,5.581 -7.142,1.264 -8.169,-3.569 -8.02,-8.917 c 0.15,-5.329 1.429,-9.474 3.838,-12.429"
             style="fill:#000000;fill-opacity:1;fill-rule:nonzero;stroke:none"
             id="path42" /></g><g
           id="g44"
           transform="translate(181.2935,380.3057)"><path
             d="m 0,0 c 0.455,-0.007 1.503,0.173 3.145,0.54 1.226,0.273 2.201,0.545 2.926,0.817 0.268,0.1 0.413,0.16 0.435,0.178 0.098,0.09 0.141,0.27 0.128,0.54 C 6.557,3.662 6.409,6.043 6.187,9.218 5.967,12.392 5.817,14.772 5.742,16.361 5.672,17.8 5.632,19.975 5.624,22.883 5.614,25.792 5.575,27.966 5.506,29.406 5.492,29.701 5.321,29.813 4.995,29.74 4.646,29.663 4.133,29.528 3.455,29.334 2.776,29.142 2.263,29.008 1.915,28.929 1.566,28.851 1.04,28.754 0.334,28.637 -0.37,28.521 -0.896,28.423 -1.245,28.346 -1.504,28.288 -1.626,28.11 -1.611,27.815 c 0.069,-1.44 0.212,-3.591 0.429,-6.453 0.218,-2.862 0.361,-5.013 0.431,-6.453 0.082,-1.71 0.153,-5.311 0.213,-10.805 C -0.518,1.802 -0.51,0.603 -0.516,0.501 -0.495,0.175 -0.324,0.008 0,0"
             style="fill:#000000;fill-opacity:1;fill-rule:nonzero;stroke:none"
             id="path46" /></g><g
           id="g48"
           transform="translate(223.6733,383.3462)"><path
             d="m 0,0 c 1.448,-1.341 3.293,-1.78 5.535,-1.323 2.216,0.454 3.963,1.636 5.244,3.551 1.28,1.91 1.852,4.102 1.714,6.575 -0.137,2.469 -0.942,4.359 -2.414,5.664 C 8.605,15.771 6.774,16.199 4.586,15.752 2.371,15.297 0.621,14.138 -0.662,12.267 -1.945,10.4 -2.518,8.23 -2.38,5.759 -2.241,3.258 -1.448,1.339 0,0"
             style="fill:#000000;fill-opacity:1;fill-rule:nonzero;stroke:none"
             id="path50" /></g><g
           id="g52"
           transform="translate(161.3184,484.6289)"><path
             d="m 0,0 c 49.346,5.646 93.182,-10.082 109.829,-38.631 l -8.421,-3.656 3.627,-8.654 45.229,19.632 -3.627,8.655 -22.906,-9.942 c -2.02,3.681 -4.394,7.227 -7.134,10.617 -6.632,8.202 -15.209,15.318 -25.492,21.151 -19.66,11.151 -44.338,17.046 -71.364,17.046 -6.453,0 -12.975,-0.348 -19.516,-1.03 L 0.516,34.82 H -8.869 L -9.494,-7.408 h 9.384 z"
             style="fill:#000000;fill-opacity:1;fill-rule:nonzero;stroke:none"
             id="path54" /></g><g
           id="g56"
           transform="translate(197.8804,395.1729)"><path
             d="m 0,0 c 0.388,0.196 1.757,0.557 4.107,1.082 2.338,0.523 3.701,0.772 4.089,0.75 0.251,-0.025 0.39,-0.301 0.415,-0.825 0.051,-1.063 0.086,-2.672 0.104,-4.822 0.018,-2.153 0.053,-3.76 0.104,-4.822 0.014,-0.283 0.177,-0.43 0.49,-0.443 0.314,-0.01 1.353,0.181 3.118,0.577 1.248,0.276 2.213,0.534 2.895,0.768 0.268,0.087 0.424,0.156 0.467,0.206 0.098,0.09 0.14,0.277 0.127,0.559 -0.071,1.453 -0.235,3.633 -0.494,6.541 -0.259,2.908 -0.424,5.094 -0.495,6.561 -0.075,1.561 -0.135,3.914 -0.178,7.059 -0.043,3.146 -0.103,5.494 -0.177,7.04 -0.015,0.323 -0.186,0.449 -0.512,0.375 C 13.722,20.531 13.22,20.398 12.553,20.209 11.886,20.02 11.39,19.887 11.063,19.815 10.727,19.74 10.222,19.647 9.551,19.538 8.88,19.429 8.382,19.338 8.056,19.265 7.775,19.202 7.644,18.962 7.664,18.545 7.711,17.562 7.822,16.102 7.995,14.161 8.167,12.221 8.278,10.766 8.324,9.797 8.347,9.326 8.225,9.021 7.959,8.88 7.583,8.687 6.19,8.32 3.784,7.784 1.198,7.205 -0.244,6.937 -0.541,6.979 c -0.218,0.034 -0.337,0.285 -0.36,0.755 -0.049,1.01 -0.06,2.535 -0.033,4.575 0.027,2.038 0.017,3.563 -0.032,4.571 -0.012,0.243 -0.114,0.343 -0.305,0.301 C -1.63,17.1 -2.172,16.958 -2.895,16.756 -3.618,16.554 -4.16,16.412 -4.52,16.332 -4.868,16.253 -5.395,16.157 -6.099,16.04 c -0.705,-0.117 -1.232,-0.214 -1.58,-0.292 -0.237,-0.053 -0.347,-0.228 -0.333,-0.524 0.075,-1.56 0.244,-3.892 0.508,-6.995 0.262,-3.104 0.431,-5.437 0.506,-6.998 0.071,-1.467 0.118,-3.681 0.141,-6.64 0.024,-2.96 0.07,-5.168 0.14,-6.619 0.016,-0.351 0.19,-0.523 0.519,-0.518 0.42,0.012 1.389,0.19 2.906,0.528 1.754,0.393 2.809,0.669 3.166,0.83 0.299,0.135 0.44,0.405 0.421,0.808 -0.051,1.05 -0.154,2.614 -0.311,4.694 -0.158,2.081 -0.261,3.645 -0.312,4.695 C -0.354,-0.453 -0.245,-0.123 0,0"
             style="fill:#000000;fill-opacity:1;fill-rule:nonzero;stroke:none"
             id="path58" /></g><g
           id="g60"
           transform="translate(227.8726,403.1689)"><path
             d="M 0,0 C 1.873,0.383 2.897,1.143 3.074,2.28 3.836,7.286 4.61,12.307 5.397,17.347 6.006,22.232 6.162,27.348 5.864,32.703 5.468,39.82 5.006,43.326 4.479,43.218 3.74,43.066 2.636,42.78 1.166,42.362 -0.305,41.941 -1.409,41.655 -2.147,41.505 -2.886,41.353 -3.997,41.186 -5.479,41 -6.964,40.817 -8.075,40.649 -8.813,40.499 -9.288,40.402 -9.494,39.806 -9.434,38.72 c 0.073,-1.323 0.224,-3.3 0.45,-5.932 0.226,-2.629 0.376,-4.607 0.45,-5.931 0.067,-1.207 0.113,-3.012 0.14,-5.417 0.028,-2.404 0.075,-4.207 0.142,-5.413 0.071,-1.295 1.61,-6.41 4.613,-15.342 C -3.349,-0.21 -2.135,-0.437 0,0"
             style="fill:#000000;fill-opacity:1;fill-rule:nonzero;stroke:none"
             id="path62" /></g><g
           id="g64"
           transform="translate(373.7275,293.6055)"><path
             d="M 0,0 C 24.711,23.46 36.911,3.44 36.911,3.44 27.526,36.598 1.876,14.389 0,0"
             style="fill:#000000;fill-opacity:1;fill-rule:nonzero;stroke:none"
             id="path66" /></g><g
           id="g68"
           transform="translate(301.3442,293.6055)"><path
             d="m 0,0 c -1.876,14.389 -27.526,36.598 -36.911,3.44 0,0 12.2,20.02 36.911,-3.44"
             style="fill:#000000;fill-opacity:1;fill-rule:nonzero;stroke:none"
             id="path70" /></g><g
           id="g72"
           transform="translate(338.2549,218.5322)"><path
             d="m 0,0 c 13.302,0 24.086,-3.502 24.086,-7.82 0,-4.319 -10.784,-7.82 -24.086,-7.82 -13.302,0 -24.085,3.501 -24.085,7.82 C -24.085,-3.502 -13.302,0 0,0 m 0.156,-24.712 c 24.273,0 43.949,18.76 43.949,41.901 h -87.897 c 0,-23.141 19.677,-41.901 43.948,-41.901"
             style="fill:#000000;fill-opacity:1;fill-rule:nonzero;stroke:none"
             id="path74" /></g><g
           id="g76"
           transform="translate(110.874,386.7021)"><path
             d="M 0,0 C 2.384,0.532 5.078,0.985 8.083,1.357 8.252,1.382 8.371,1.401 8.438,1.417 8.663,1.466 8.769,1.632 8.755,1.915 8.739,2.251 8.634,3.191 8.44,4.733 8.247,6.272 8.114,7.192 8.043,7.489 7.929,7.993 7.578,8.182 6.994,8.049 6.173,7.867 4.937,7.562 3.288,7.141 1.637,6.717 0.402,6.413 -0.419,6.23 -1.251,6.044 -2.503,5.792 -4.175,5.473 -5.848,5.152 -7.1,4.9 -7.932,4.714 -8.235,4.646 -8.368,4.46 -8.331,4.155 L -8.3,3.876 c 0.193,-2.119 0.332,-3.713 0.417,-4.781 0.337,-4.156 0.542,-7 0.615,-8.534 0.073,-1.507 0.112,-3.787 0.117,-6.839 0.005,-3.052 0.043,-5.333 0.115,-6.839 0.019,-0.391 0.214,-0.545 0.586,-0.462 0.854,0.191 2.136,0.471 3.846,0.84 1.709,0.368 2.997,0.649 3.863,0.843 3.969,0.887 6.367,1.355 7.194,1.404 0.238,0.012 0.408,0.03 0.508,0.053 0.237,0.052 0.416,0.222 0.539,0.508 0.142,0.357 0.273,1.399 0.395,3.127 0.116,1.59 0.161,2.675 0.133,3.253 -0.023,0.485 -0.159,0.701 -0.406,0.644 -0.584,-0.131 -1.462,-0.391 -2.63,-0.781 -1.169,-0.39 -2.051,-0.653 -2.647,-0.785 -1.664,-0.373 -2.485,-0.556 -2.463,-0.551 -1.252,-0.185 -1.986,-0.044 -2.202,0.425 -0.126,0.271 -0.215,0.919 -0.264,1.94 -0.037,0.768 -0.051,1.186 -0.043,1.257 0.065,0.285 0.329,0.48 0.79,0.583 l 1.788,0.4 c 2.282,0.51 3.746,0.796 4.39,0.86 l 1.528,0.137 c 0.326,0.073 0.482,0.244 0.469,0.512 -0.051,1.077 -0.058,2.164 -0.021,3.26 0.079,2.076 0.128,3.14 0.149,3.198 -0.027,0.275 -0.164,0.39 -0.42,0.332 C 7.821,-2.17 7.519,-2.265 7.139,-2.403 6.646,-2.568 6.339,-2.671 6.216,-2.712 4.771,-3.13 3.339,-3.498 1.922,-3.814 1.708,-3.862 1.439,-3.933 1.115,-4.026 0.789,-4.119 0.571,-4.178 0.458,-4.203 c -0.54,-0.121 -0.911,-0.075 -1.115,0.139 -0.239,0.246 -0.38,0.825 -0.425,1.741 -0.042,0.875 -0.039,1.398 0.01,1.573 C -0.954,-0.384 -0.596,-0.134 0,0"
             style="fill:#000000;fill-opacity:1;fill-rule:nonzero;stroke:none"
             id="path78" /></g><g
           id="g80"
           transform="translate(289.6392,267.0225)"><path
             d="m 0,0 c -5.428,0 -9.829,4.4 -9.829,9.829 0,5.428 4.401,9.828 9.829,9.828 5.428,0 9.829,-4.4 9.829,-9.828 C 9.829,4.4 5.428,0 0,0 m 15.459,3.903 c 0,10.626 -7.002,19.24 -15.64,19.24 -8.638,0 -15.64,-8.614 -15.64,-19.24 0,-10.623 7.002,-19.236 15.64,-19.236 8.638,0 15.64,8.613 15.64,19.236"
             style="fill:#000000;fill-opacity:1;fill-rule:nonzero;stroke:none"
             id="path82" /></g><g
           id="g84"
           transform="translate(385.6699,267.0225)"><path
             d="m 0,0 c -5.428,0 -9.829,4.4 -9.829,9.829 0,5.428 4.401,9.828 9.829,9.828 5.428,0 9.828,-4.4 9.828,-9.828 C 9.828,4.4 5.428,0 0,0 m -0.182,23.143 c -8.637,0 -15.639,-8.614 -15.639,-19.24 0,-10.623 7.002,-19.236 15.639,-19.236 8.639,0 15.64,8.613 15.64,19.236 0,10.626 -7.001,19.24 -15.64,19.24"
             style="fill:#000000;fill-opacity:1;fill-rule:nonzero;stroke:none"
             id="path86" /></g><g
           id="g88"
           transform="translate(117.7305,415.1255)"><path
             d="m 0,0 c -0.073,-0.301 -0.49,-0.56 -1.251,-0.781 -0.82,-0.24 -1.409,-0.394 -1.767,-0.466 -0.693,-0.167 -1.044,-0.094 -1.053,0.215 -0.013,0.464 0.255,2.129 0.802,4.991 0.506,2.697 0.87,4.458 1.091,5.287 0.261,-0.62 0.687,-2.089 1.275,-4.413 C -0.3,2.424 0.009,0.938 0.025,0.371 0.029,0.215 0.021,0.091 0,0 m 3.933,-13.313 c 0.476,0.001 1.54,0.243 3.19,0.723 1.799,0.524 2.87,0.905 3.212,1.144 0.285,0.204 0.424,0.463 0.415,0.773 -0.013,0.463 -1.542,5.617 -4.585,15.459 -3.031,9.778 -4.855,15.487 -5.471,17.128 -0.2,0.513 -0.41,0.738 -0.63,0.673 -0.299,-0.087 -0.751,-0.249 -1.355,-0.485 -0.604,-0.237 -1.062,-0.4 -1.373,-0.492 -0.324,-0.094 -0.812,-0.193 -1.466,-0.297 -0.655,-0.104 -1.138,-0.201 -1.449,-0.292 -0.184,-0.055 -0.337,-0.428 -0.457,-1.123 -0.21,-1.204 -1.569,-7.919 -4.076,-20.143 -2.311,-11.301 -3.461,-17.174 -3.449,-17.621 0.014,-0.5 0.904,-0.492 2.669,0.023 2.238,0.653 3.552,1.106 3.939,1.358 0.309,0.21 0.552,1.062 0.732,2.552 0.198,1.636 0.391,2.619 0.58,2.952 0.122,0.19 1.164,0.573 3.125,1.145 2.908,0.849 4.455,1.238 4.643,1.172 0.224,-0.107 0.567,-1.343 1.028,-3.705 0.123,-0.623 0.382,-0.938 0.778,-0.944"
             style="fill:#000000;fill-opacity:1;fill-rule:nonzero;stroke:none"
             id="path90" /></g><g
           id="g92"
           transform="translate(556.3525,230.4131)"><path
             d="m 0,0 c -4.196,-15.121 -16.16,-25.003 -26.72,-22.072 -10.559,2.93 -15.718,17.565 -11.521,32.687 4.197,15.121 16.16,25.004 26.72,22.073 C -0.962,29.759 4.197,15.122 0,0 m -53.563,-11.881 c -7.774,0 -14.076,9.944 -14.076,22.209 0,12.266 6.302,22.209 14.076,22.209 7.774,0 14.077,-9.943 14.077,-22.209 0,-12.265 -6.303,-22.209 -14.077,-22.209 M -68.63,-46.998 c -19.173,-9.773 -42.012,-11.522 -54.996,-11.468 0.264,15.861 0.818,35.629 1.943,56.847 13.029,-1.339 33.296,-0.607 45.747,0.059 2.252,-7.124 6.546,-12.635 11.81,-15.002 z m -70.233,-48.571 c 0,0 -74.131,31.435 -165.621,-5.631 1.087,6.043 1.971,12.067 2.674,18.058 0.65,5.537 1.144,11.043 1.498,16.507 5.904,4.159 11.014,9.577 15.094,16.068 5.606,8.918 9.164,19.646 10.29,31.026 1.032,10.432 -0.033,20.72 -3.083,29.749 -3.618,10.716 -9.828,18.996 -17.957,23.944 -3.847,2.342 -8.118,4.14 -12.775,5.401 -6.584,31.173 -14.915,54.325 -18.513,63.591 4.934,2.578 9.671,5.363 14.186,8.336 31.45,6.719 105.612,18.026 188.752,-1.079 -16.422,-80.229 -14.545,-205.97 -14.545,-205.97 m -178.706,36.768 c -33.47,-12.2 -66.314,8.758 -71.006,55.365 -4.692,46.609 4.066,77.576 22.209,76.99 18.142,-0.587 4.692,-52.903 4.066,-54.155 0,0 36.911,15.015 58.495,1.877 2.572,-1.566 4.807,-3.727 6.699,-6.333 -6.382,3.127 -16.391,6.149 -27.97,2.893 -20.02,-5.631 -46.295,-22.835 -35.972,-46.921 10.322,-24.086 50.361,-14.702 55.991,3.44 -13.137,-13.136 -42.455,-12.199 -44.531,0.94 -1.985,12.56 41.392,43.707 59.693,18.526 1.942,-20.405 -6.604,-44.943 -27.674,-52.622 m -23.368,155.533 c 3.338,-8.709 10.354,-28.492 16.299,-55.015 -0.551,0.011 -1.102,0.022 -1.661,0.022 -5.698,0 -11.333,-0.599 -16.53,-1.479 2.137,17.042 0.865,28.812 -3.967,36.921 -4.004,6.719 -10.558,10.826 -18.093,11.383 8.284,2.232 16.297,4.968 23.952,8.168 m 67.464,55.318 c 28.461,4.377 63.993,6.72 101.784,1.734 -43.817,2.351 -79.211,-2.129 -105.89,-8.337 -8.611,-1.805 -16.208,-3.825 -26.025,-7.344 -15.235,-5.124 -25.448,-10.156 -30.497,-12.902 l -4.164,11.007 c 0,0 35.875,11.708 64.792,15.842 m 148.686,-8.336 c -2.865,-7.639 -4.514,-13.088 -5.443,-16.602 -28.853,5.933 -59.023,8.937 -89.829,8.937 -26.973,0 -50.615,-2.279 -69.277,-5.011 0.245,0.253 0.488,0.507 0.729,0.762 58.132,21.145 130.99,16.4 157.894,13.643 1.975,-0.554 3.949,-1.128 5.926,-1.729 M 20.335,104.825 c -2.272,2.118 -5.192,4.085 -8.927,6.015 -6.047,3.123 -14.157,6.058 -22.837,8.265 -9.279,2.359 -18.261,3.657 -25.293,3.657 -3.964,0 -7.282,-0.402 -10.144,-1.23 -9.543,-2.758 -12.286,-9.79 -13.023,-12.687 -0.763,-3.005 -1.716,-10.762 5.913,-17.876 1.451,-1.351 3.164,-2.641 5.185,-3.898 L -56.147,37.36 c -0.723,0.119 -1.457,0.182 -2.201,0.182 -10.277,0 -18.676,-11.521 -19.266,-26.048 -16.534,-2.901 -33.017,-1.519 -43.303,0.084 2.058,32.582 5.53,67.289 11.366,95.801 l 2.951,14.417 -14.342,3.296 c -0.45,0.104 -0.901,0.204 -1.35,0.305 l 8.765,23.009 c 0,0 -61.569,25.797 -155.27,13.201 0.186,0.449 0.37,0.899 0.547,1.351 3.935,9.981 5.65,20.01 5.139,29.93 l 23.951,4.158 -1.487,9.265 -48.58,-8.433 1.487,-9.266 9.627,1.672 c 0.154,-10.701 -3.016,-21.409 -8.923,-31.56 -19.682,-3.573 -40.59,-8.869 -62.489,-16.417 3.467,-10.403 5.908,-17.725 7.61,-22.826 l -7.673,-2.284 2.819,-6.555 c -10.281,-4.302 -21.413,-7.76 -33.19,-10.16 -15.007,-3.057 -29.724,-4.123 -43.58,-3.436 l 1.336,7.824 -9.229,1.696 -8.298,-48.603 9.23,-1.696 4.407,25.815 c 3.507,-0.208 7.06,-0.315 10.657,-0.315 11.257,0 22.721,1.048 34.14,3.112 -2.981,-1.679 -5.745,-3.907 -8.235,-6.661 -6.93,-7.663 -11.578,-19.35 -13.816,-34.736 -2,-13.753 -2.076,-30.046 -0.226,-48.427 2.15,-21.355 9.688,-39.47 21.799,-52.384 12.07,-12.87 28.258,-19.959 45.58,-19.96 h 0.004 c 6.693,0 13.456,1.048 20.151,3.109 -0.74,-8.049 -1.813,-16.188 -3.281,-24.352 l -4.837,-26.901 25.333,10.263 c 27.792,11.26 56.754,16.969 86.078,16.969 40.097,0 67.154,-10.901 68.021,-11.255 l 21.282,-9.176 -0.348,23.288 c -0.005,0.329 -0.124,9.256 -0.001,23.645 15.226,0.444 41.762,5.936 52.741,8.342 l -11.915,-80.527 26.588,11.261 c 0.246,0.842 14.567,47.811 29.662,96.989 0.89,-0.226 1.796,-0.406 2.721,-0.528 16.131,-2.119 31.391,12.766 34.082,33.246 2.137,16.26 -4.29,31.158 -15.103,37.67 C -0.733,48.545 2.854,60 5.21,67.35 l 1.871,5.837 c 2.271,0.187 4.304,0.541 6.146,1.074 9.544,2.759 12.286,9.792 13.021,12.687 0.765,3.005 1.718,10.762 -5.913,17.877"
             style="fill:#000000;fill-opacity:1;fill-rule:nonzero;stroke:none"
             id="path94" /></g><g
           id="g96"
           transform="translate(111.4092,343.106)"><path
             d="m 0,0 -5.153,-11.961 c -32.408,7.671 -56.313,26.243 -61.497,51.689 -1.778,8.724 -1.21,17.566 1.379,26.215 l 14.612,-2.536 1.488,9.266 -48.58,8.433 -1.488,-9.265 19.027,-3.303 c -2.933,-10.664 -3.345,-21.333 -1.208,-31.82 2.175,-10.683 6.91,-20.591 14.07,-29.447 6.633,-8.203 15.209,-15.319 25.493,-21.151 9.206,-5.222 19.517,-9.286 30.65,-12.137 l -8.299,-19.267 8.57,-3.822 19.507,45.285 z"
             style="fill:#000000;fill-opacity:1;fill-rule:nonzero;stroke:none"
             id="path98" /></g><g
           id="g100"
           transform="translate(66.6372,429.8306)"><path
             d="m 0,0 -7.7,3.342 c 16.29,21.022 44.5,38.64 78.892,47.202 l 0.545,-5.657 h 9.384 L 77.054,87.116 H 67.67 L 69.733,65.695 C 38.379,58.266 10.494,43.648 -9.307,24.148 -14.082,19.445 -18.29,14.557 -21.914,9.512 l -23.315,10.12 -3.627,-8.655 45.229,-19.632 z"
             style="fill:#000000;fill-opacity:1;fill-rule:nonzero;stroke:none"
             id="path102" /></g><g
           id="g104"
           transform="translate(81.7246,371.1279)"><path
             d="m 0,0 c 0.592,-1.214 1.489,-3.198 2.69,-5.947 1.125,-2.606 2.027,-4.58 2.706,-5.925 0.125,-0.244 0.479,-0.301 1.064,-0.17 0.394,0.088 0.619,0.146 0.675,0.17 0.166,0.092 0.297,0.306 0.395,0.64 0.694,2.563 1.389,5.133 2.083,7.708 1.187,4.387 1.84,6.635 1.96,6.743 0.102,-0.004 0.163,-0.202 0.182,-0.592 0.065,-1.36 0.121,-3.408 0.168,-6.145 0.046,-2.736 0.102,-4.785 0.167,-6.144 0.023,-0.47 0.198,-0.67 0.524,-0.597 l 5.97,1.334 c 0.326,0.072 0.479,0.319 0.459,0.736 -0.07,1.453 -0.226,3.634 -0.468,6.546 -0.243,2.911 -0.4,5.1 -0.47,6.566 -0.076,1.588 -0.144,3.971 -0.199,7.148 -0.056,3.178 -0.123,5.558 -0.199,7.146 -0.016,0.323 -0.192,0.448 -0.53,0.372 -0.281,-0.062 -0.709,-0.193 -1.284,-0.39 C 15.316,19.002 14.888,18.874 14.606,18.811 14.27,18.736 13.771,18.644 13.111,18.538 12.452,18.43 11.958,18.342 11.633,18.269 11.407,18.219 11.212,17.909 11.047,17.342 9.094,11.152 7.618,6.517 6.62,3.438 6.263,2.337 6.023,1.774 5.899,1.747 5.663,1.693 5.35,2.066 4.958,2.863 L -0.588,14.7 c -0.252,0.515 -0.44,0.758 -0.564,0.731 C -1.771,15.293 -2.696,15.062 -3.931,14.738 -5.166,14.415 -6.092,14.184 -6.71,14.046 -7.194,13.938 -7.424,13.75 -7.4,13.484 l 0.034,-0.339 c 0.197,-2.187 0.327,-3.839 0.392,-4.952 0.319,-4.269 0.516,-7.183 0.591,-8.744 0.071,-1.466 0.117,-3.682 0.141,-6.649 0.023,-2.967 0.07,-5.183 0.141,-6.65 0.011,-0.217 0.043,-0.361 0.098,-0.438 0.055,-0.075 0.195,-0.088 0.42,-0.038 l 5.633,1.259 c 0.314,0.07 0.46,0.341 0.438,0.812 -0.064,1.318 -0.187,3.291 -0.371,5.916 -0.183,2.625 -0.305,4.596 -0.37,5.915 -0.013,0.27 0.018,0.473 0.09,0.612 C -0.08,0.124 -0.025,0.062 0,0"
             style="fill:#000000;fill-opacity:1;fill-rule:nonzero;stroke:none"
             id="path106" /></g><g
           id="g108"
           transform="translate(362.3408,210.7119)"><path
             d="m 0,0 c 0,-4.318 -10.784,-7.819 -24.086,-7.819 -13.302,0 -24.085,3.501 -24.085,7.819 0,4.318 10.783,7.82 24.085,7.82 C -10.784,7.82 0,4.318 0,0"
             style="fill:#ff0000;fill-opacity:1;fill-rule:nonzero;stroke:none"
             id="path110" /></g><g
           id="g112"
           transform="translate(196.5688,260.3613)"><path
             d="M 0,0 C 3.128,15.646 6.552,43.181 -6.583,43.605 -19.753,44.031 -27.977,27.823 -29.7,1.077 c 3.138,-3.663 6.7,-6.614 8.416,-3.806 3.441,5.63 2.189,12.648 10.323,5.386 C -7.193,-0.708 -3.291,-0.968 0,0"
             style="fill:#4a007d;fill-opacity:1;fill-rule:nonzero;stroke:none"
             id="path114" /></g></g></g><g
       id="g116"><g
         id="g118"
         clip-path="url(#clipPath122)"><g
           id="g124"><g
             id="g126" /><g
             id="g152"
             mask="url(#mask140)"><g
               id="g154"><path
                 d="m 166.869,261.438 c 3.138,-3.663 6.7,-6.614 8.416,-3.805 v 0 c 3.441,5.63 2.189,12.647 10.322,5.386 v 0 c 3.769,-3.365 7.672,-3.626 10.962,-2.658 v 0 c 3.128,15.646 6.552,43.181 -6.583,43.606 v 0 c -0.168,0.005 -0.337,0.008 -0.504,0.008 v 0 c -12.876,0 -20.912,-16.133 -22.613,-42.537"
                 style="fill:url(#radialGradient162);stroke:none"
                 id="path164" /></g></g></g></g></g><g
       id="g166"><g
         id="g168"
         clip-path="url(#clipPath172)"><g
           id="g174"
           transform="translate(425.6396,375.856)"><path
             d="m 0,0 c -5.863,0.601 -13.914,1.295 -23.513,1.796 -10.004,0.34 -19.335,0.561 -28.041,0.677 -33.097,-0.143 -74.109,-3.767 -109.263,-17.205 18.987,2.876 43.431,5.338 71.471,5.338 30.806,0 60.975,-3.004 89.828,-8.937 0.93,3.515 2.579,8.963 5.444,16.602 C 3.949,-1.127 1.975,-0.554 0,0 m -18.312,-171.441 0.37,1.918 c 0,0 -0.145,-0.673 -0.37,-1.918 m -166.041,126.727 12.199,-46.608 -1.877,42.719 35.972,11.709 z m 111.075,-172.021 c -0.222,-0.014 -0.343,-0.021 -0.343,-0.021 0.114,0.007 0.228,0.014 0.343,0.021 m 54.966,45.294 c -1.291,-7.14 -5.224,-33.251 0.37,-60.955 -11.57,17.8 -51.271,15.904 -55.336,15.661 19.373,1.237 46.577,1.856 46.577,1.856 z"
             style="fill:#999999;fill-opacity:1;fill-rule:nonzero;stroke:none"
             id="path176" /></g><g
           id="g178"
           transform="translate(502.79,262.9502)"><path
             d="m 0,0 c -7.774,0 -14.076,-9.943 -14.076,-22.209 0,-12.266 6.302,-22.209 14.076,-22.209 7.773,0 14.076,9.943 14.076,22.209 C 14.076,-9.943 7.773,0 0,0 m 53.563,-32.537 c -4.197,-15.121 -16.161,-25.003 -26.72,-22.072 -10.56,2.93 -15.718,17.565 -11.522,32.687 4.198,15.121 16.16,25.004 26.72,22.073 10.56,-2.929 15.719,-17.566 11.522,-32.688"
             style="fill:#ffffff;fill-opacity:1;fill-rule:nonzero;stroke:none"
             id="path180" /></g><g
           id="g182"
           transform="translate(521.2451,307.6816)"><path
             d="m 0,0 -8.121,-50.208 c 0.624,-1.126 1.189,-2.322 1.685,-3.581 0.308,0.471 0.625,0.932 0.949,1.384 l -1.082,-0.459 8.588,47.546 8.616,-2.815 -7.938,-36.002 c 3.907,2.776 8.275,4.52 12.823,4.96 4.311,14.239 7.975,26.158 10.443,33.857 C 20.645,-6.256 0,0 0,0 m -22.967,-155.57 c -0.428,-0.43 9.929,64.648 9.477,64.269 -0.474,-0.397 -0.959,-0.765 -1.455,-1.105 l -17.586,-108.727 c 0,0 13.77,46.988 28.317,95.996 -2.837,3.113 -5.133,6.941 -6.746,11.253 -0.459,1.228 -11.661,-62.987 -12.007,-61.686 M 46.747,13.394 C 45.82,9.75 32.328,10.034 16.61,14.029 0.893,18.025 -11.099,24.219 -10.172,27.863 -9.245,31.507 4.247,31.222 19.966,27.228 35.683,23.231 47.673,17.038 46.747,13.394"
             style="fill:#999999;fill-opacity:1;fill-rule:nonzero;stroke:none"
             id="path184" /></g><g
           id="g186"
           transform="translate(436.1621,192.2569)"><path
             d="M 0,0 C 0,0 34.409,-4.067 48.485,4.066 35.034,-10.323 0,-11.573 0,-11.573 Z"
             style="fill:#999999;fill-opacity:1;fill-rule:nonzero;stroke:none"
             id="path188" /></g><g
           id="g190"
           transform="translate(554.6709,236.6524)"><path
             d="M 0,0 C -7.03,-11.7 -19.871,-20.831 -31.407,-19.998 -14.718,-35.631 0.148,0.439 0.148,0.439"
             style="fill:#999999;fill-opacity:1;fill-rule:nonzero;stroke:none"
             id="path192" /></g></g></g><g
       id="g194"><g
         id="g196"
         clip-path="url(#clipPath200)"><g
           id="g202"><g
             id="g204" /><g
             id="g230"
             mask="url(#mask218)"><g
               id="g232"><path
                 d="m 388.828,86.53 c 0,-5.909 37.377,-10.698 83.484,-10.698 v 0 c 46.107,0 83.484,4.789 83.484,10.698 v 0 c 0,5.907 -37.377,10.698 -83.484,10.698 v 0 c -46.107,0 -83.484,-4.791 -83.484,-10.698"
                 style="fill:url(#radialGradient240);stroke:none"
                 id="path242" /></g></g></g></g></g><g
       id="g244"><g
         id="g246"
         clip-path="url(#clipPath250)"><g
           id="g252"><g
             id="g254" /><g
             id="g280"
             mask="url(#mask268)"><g
               id="g282"><path
                 d="m 150.575,103.859 c 0,-9.571 87.936,-17.329 196.409,-17.329 v 0 c 108.474,0 196.409,7.758 196.409,17.329 v 0 c 0,9.571 -87.935,17.33 -196.409,17.33 v 0 c -108.473,0 -196.409,-7.759 -196.409,-17.33"
                 style="fill:url(#radialGradient290);stroke:none"
                 id="path292" /></g></g></g></g></g></g></svg>
